<svg xmlns="http://www.w3.org/2000/svg" width="155" height="155" viewBox="0 0 155 155">
<g>
<path d="M 91.00 114.88 C78.69,118.94 77.00,119.39 77.00,118.61 C77.00,117.27 96.92,98.00 98.30,98.00 C100.26,98.00 100.45,99.29 98.91,102.16 C98.32,103.27 98.10,105.27 98.43,106.59 C98.91,108.50 99.69,109.00 102.22,109.00 C107.23,109.00 104.54,110.41 91.00,114.88 ZM 69.97 101.02 C62.76,105.92 61.00,106.66 61.00,104.83 C61.00,103.18 63.78,98.98 65.95,97.33 C66.80,96.69 67.50,95.67 67.50,95.08 C67.50,94.49 67.86,94.03 68.31,94.08 C68.75,94.12 70.76,92.89 72.78,91.35 C75.31,89.42 78.16,88.36 81.97,87.91 C90.41,86.93 90.75,88.04 83.49,92.78 C79.94,95.10 76.77,97.00 76.46,97.00 C76.15,97.00 73.22,98.81 69.97,101.02 Z" fill="rgb(3,2,112)"/>
<path d="M 69.97 101.02 C73.22,98.81 76.15,97.00 76.46,97.00 C76.14,97.01 70.86,100.43 64.70,104.61 C58.54,108.80 54.48,111.93 55.69,111.57 C56.89,111.20 58.69,111.35 59.69,111.89 C60.68,112.44 64.05,113.63 67.16,114.55 C75.93,117.13 77.33,116.31 94.53,98.41 C102.76,89.84 110.34,82.37 111.36,81.82 C114.54,80.10 115.17,82.18 113.54,89.08 C113.48,89.37 113.41,89.64 113.35,89.91 C112.24,94.58 111.87,96.18 112.46,96.72 C112.77,97.01 113.34,97.00 114.20,97.00 C114.30,97.00 114.40,97.00 114.50,97.00 L 114.56 97.00 C115.72,97.00 116.43,97.00 116.69,97.34 C117.10,97.87 116.41,99.24 114.64,102.72 L 114.59 102.83 L 112.18 107.58 L 100.96 111.40 C105.48,109.63 105.58,109.00 102.22,109.00 C99.69,109.00 98.91,108.50 98.43,106.59 C98.10,105.27 98.32,103.27 98.91,102.16 C100.45,99.29 100.26,98.00 98.30,98.00 C96.94,98.00 77.75,116.54 77.02,118.51 C72.36,119.10 68.79,118.35 62.50,116.65 C52.87,114.06 51.74,113.42 49.64,109.30 C47.53,105.19 47.58,104.70 49.93,105.96 C52.63,107.41 54.00,107.26 54.00,105.52 C54.00,104.70 55.02,103.78 56.26,103.47 C57.51,103.16 59.58,101.36 60.87,99.48 C62.46,97.16 63.90,96.13 65.36,96.28 C66.54,96.40 67.41,96.01 67.30,95.40 C67.27,95.23 67.39,94.91 67.63,94.50 C67.55,94.66 67.50,94.86 67.50,95.08 C67.50,95.67 66.80,96.69 65.95,97.33 C63.78,98.98 61.00,103.18 61.00,104.83 C61.00,106.66 62.76,105.92 69.97,101.02 ZM 67.70 94.39 C68.32,93.39 69.57,91.89 71.05,90.45 C73.22,88.33 75.00,86.04 75.00,85.36 C75.00,84.68 76.65,82.57 78.66,80.67 L 82.32 77.22 L 84.41 79.21 C86.24,80.96 87.40,81.13 93.71,80.62 C101.74,79.97 102.60,81.07 96.72,84.47 C94.95,85.50 89.79,88.73 85.26,91.67 C83.99,92.49 82.77,93.27 81.66,93.96 C82.25,93.59 82.86,93.19 83.49,92.78 C90.75,88.04 90.41,86.93 81.97,87.91 C78.16,88.36 75.31,89.42 72.78,91.35 C70.76,92.89 68.75,94.12 68.31,94.08 C68.07,94.05 67.85,94.18 67.70,94.39 Z" fill="rgb(4,2,152)"/>
<path d="M 79.98 102.10 C85.63,104.83 88.47,104.21 96.75,96.10 C96.02,96.86 95.27,97.63 94.53,98.41 C77.33,116.31 75.93,117.13 67.16,114.55 C64.05,113.63 60.68,112.44 59.69,111.89 C58.69,111.35 56.89,111.20 55.69,111.57 C54.48,111.93 58.54,108.80 64.70,104.61 C58.54,108.80 54.62,111.89 56.00,111.47 C57.38,111.05 59.85,109.71 61.50,108.49 C63.15,107.27 67.06,104.89 70.19,103.20 L 75.89 100.13 ZM 48.20 106.15 C45.23,100.79 42.00,94.30 42.00,93.18 C42.00,92.70 43.82,91.77 46.05,91.10 C48.28,90.43 50.34,89.27 50.64,88.51 C50.94,87.70 51.86,87.38 52.83,87.75 C54.98,88.54 60.40,92.27 60.83,93.25 C61.02,93.66 61.78,94.00 62.53,94.00 C63.29,94.00 64.31,94.74 64.82,95.64 C64.96,95.89 65.14,96.11 65.33,96.28 C63.88,96.15 62.45,97.17 60.87,99.48 C59.58,101.36 57.51,103.16 56.26,103.47 C55.02,103.78 54.00,104.70 54.00,105.52 C54.00,107.26 52.63,107.41 49.93,105.96 C48.44,105.16 47.87,105.07 48.20,106.15 ZM 99.24 82.94 C98.97,83.10 98.67,83.28 98.35,83.47 C102.34,80.85 100.89,80.03 93.71,80.62 C87.40,81.13 86.24,80.96 84.41,79.21 L 82.32 77.22 L 78.66 80.67 C78.61,80.72 78.57,80.76 78.52,80.80 C79.08,80.17 79.68,79.51 80.30,78.85 L 85.60 73.20 L 94.55 74.25 C99.47,74.83 103.56,75.35 103.63,75.40 C103.69,75.46 104.03,76.41 104.37,77.52 C104.88,79.18 103.96,80.15 99.24,82.94 ZM 116.26 97.09 C115.88,97.00 115.32,97.00 114.56,97.00 L 114.50 97.00 C114.40,97.00 114.30,97.00 114.20,97.00 C113.34,97.00 112.77,97.01 112.46,96.72 C111.87,96.18 112.24,94.58 113.35,89.91 C113.41,89.64 113.48,89.37 113.54,89.08 C114.10,86.72 114.39,84.93 114.41,83.66 C114.83,85.15 115.23,87.30 115.60,90.08 C116.04,93.43 116.28,95.50 116.26,97.09 ZM 77.00 118.64 C75.91,118.84 75.07,118.94 74.50,118.92 C73.76,118.90 72.73,118.78 71.50,118.58 C73.34,118.77 75.09,118.75 77.02,118.51 C77.01,118.55 77.00,118.58 77.00,118.61 C77.00,118.62 77.00,118.63 77.00,118.64 ZM 60.29 116.05 C56.86,115.11 53.92,114.15 52.87,113.50 C52.75,113.42 52.57,113.24 52.36,112.96 C53.83,114.08 56.05,114.87 60.29,116.05 ZM 81.62 93.99 L 81.66 93.96 C82.77,93.27 83.99,92.49 85.26,91.67 C89.49,88.93 94.27,85.92 96.33,84.70 C93.02,86.73 88.65,89.48 85.26,91.67 C83.98,92.50 82.74,93.28 81.62,93.99 ZM 113.20 81.25 C113.00,81.23 112.77,81.26 112.52,81.33 C112.78,81.20 112.97,81.16 113.08,81.19 C113.12,81.21 113.16,81.23 113.20,81.25 ZM 68.61 93.12 C69.23,92.34 70.07,91.40 71.04,90.46 C70.10,91.37 69.26,92.31 68.61,93.12 Z" fill="rgb(4,7,181)"/>
<path d="M 65.87 96.30 C65.71,96.31 65.54,96.30 65.36,96.28 C65.35,96.28 65.34,96.28 65.33,96.28 C65.14,96.11 64.96,95.89 64.82,95.64 C64.31,94.74 63.29,94.00 62.53,94.00 C61.78,94.00 61.02,93.66 60.83,93.25 C60.43,92.33 55.63,89.00 53.27,87.93 C54.79,88.30 56.68,89.30 58.25,90.72 C59.26,91.64 60.00,91.84 60.00,91.19 C60.00,90.57 59.10,89.59 58.00,89.00 C54.54,87.15 55.62,84.56 61.01,81.78 C65.42,79.50 66.46,79.33 69.63,80.30 L 73.23 81.41 L 70.36 83.70 C68.79,84.96 67.02,85.99 66.44,86.00 C65.85,86.00 64.40,86.91 63.20,88.03 L 61.02 90.06 L 63.26 93.52 C64.13,94.86 65.10,95.83 65.87,96.30 ZM 96.28 68.11 C92.20,67.53 90.73,67.70 89.53,68.90 C86.75,71.68 87.94,69.14 91.10,65.53 C92.81,63.59 95.09,62.00 96.17,62.00 C99.87,62.00 108.07,65.25 109.07,67.13 C109.98,68.83 109.67,68.99 105.79,68.93 C103.43,68.89 99.15,68.52 96.28,68.11 ZM 41.00 82.00 C39.98,82.55 39.00,84.01 38.82,85.25 C38.54,87.25 38.34,87.12 37.08,84.13 C36.10,81.80 35.97,80.28 36.65,79.19 C38.21,76.71 39.33,76.79 43.04,79.62 C44.94,81.08 45.68,81.98 44.68,81.64 C43.68,81.29 42.02,81.45 41.00,82.00 ZM 67.70 94.39 C67.68,94.42 67.65,94.46 67.63,94.50 C67.44,94.83 67.32,95.09 67.30,95.28 C67.20,94.77 68.70,92.80 70.70,90.80 C69.88,91.62 69.16,92.43 68.61,93.12 C68.61,93.12 68.61,93.12 68.61,93.12 C68.24,93.59 67.93,94.02 67.70,94.39 Z" fill="rgb(36,74,210)"/>
<path d="M 0.00 77.50 L 0.00 0.00 L 77.50 0.00 L 155.00 0.00 L 155.00 77.50 L 155.00 155.00 L 77.50 155.00 L 0.00 155.00 L 0.00 77.50 ZM 95.34 113.31 L 112.18 107.58 L 114.44 103.04 C116.58,98.76 116.64,98.02 115.60,90.08 C114.86,84.53 114.01,81.50 113.08,81.19 C112.25,80.92 107.50,85.07 101.35,91.44 C89.33,103.91 86.57,105.29 79.98,102.10 L 75.89 100.13 L 70.19 103.20 C67.06,104.89 63.15,107.27 61.50,108.49 C59.85,109.71 57.38,111.05 56.00,111.47 C54.62,111.89 58.54,108.80 64.70,104.61 C70.86,100.43 76.15,97.00 76.46,97.00 C76.77,97.00 80.73,94.60 85.26,91.67 C89.79,88.74 96.08,84.81 99.24,82.94 C103.96,80.15 104.88,79.18 104.37,77.52 C104.03,76.41 103.69,75.46 103.63,75.40 C103.56,75.35 99.47,74.83 94.55,74.25 L 85.60 73.20 L 80.30 78.85 C77.38,81.96 75.00,84.97 75.00,85.55 C75.00,86.12 73.22,88.33 71.05,90.45 C68.88,92.57 67.19,94.74 67.30,95.28 C67.80,97.73 65.28,96.63 63.26,93.52 L 61.02 90.06 L 63.20 88.03 C64.40,86.91 65.85,86.00 66.44,86.00 C67.02,85.99 68.79,84.96 70.36,83.70 L 73.23 81.41 L 69.63 80.30 C66.46,79.33 65.42,79.50 61.01,81.78 C55.62,84.56 54.54,87.15 58.00,89.00 C59.10,89.59 60.00,90.57 60.00,91.19 C60.00,91.84 59.26,91.64 58.25,90.72 C55.31,88.07 51.26,86.88 50.64,88.50 C50.35,89.26 48.28,90.43 46.05,91.10 C43.82,91.77 42.00,92.70 42.00,93.18 C42.00,95.08 51.35,112.57 52.87,113.50 C55.52,115.13 70.17,118.80 74.50,118.92 C76.99,118.99 84.87,116.87 95.34,113.31 ZM 41.00 82.00 C42.02,81.45 43.68,81.29 44.68,81.64 C45.68,81.98 44.94,81.08 43.04,79.62 C39.33,76.79 38.21,76.71 36.65,79.19 C35.97,80.28 36.10,81.80 37.08,84.13 C38.34,87.12 38.54,87.25 38.82,85.25 C39.00,84.01 39.98,82.55 41.00,82.00 ZM 96.28 68.11 C99.15,68.52 103.43,68.89 105.79,68.93 C109.67,68.99 109.98,68.83 109.07,67.13 C108.07,65.25 99.87,62.00 96.17,62.00 C95.09,62.00 92.81,63.59 91.10,65.53 C87.94,69.14 86.75,71.68 89.53,68.90 C90.73,67.70 92.20,67.53 96.28,68.11 Z" fill="rgb(17,45,203)"/>
<path d="M 0.00 77.50 L 0.00 0.00 L 77.50 0.00 L 155.00 0.00 L 155.00 77.50 L 155.00 155.00 L 77.50 155.00 L 0.00 155.00 L 0.00 77.50 ZM 95.34 113.31 L 112.18 107.58 L 114.44 103.04 C116.58,98.76 116.64,98.02 115.60,90.08 C114.86,84.53 114.01,81.50 113.08,81.19 C112.25,80.92 107.50,85.07 101.35,91.44 C89.33,103.91 86.57,105.29 79.98,102.10 L 75.89 100.13 L 70.19 103.20 C67.06,104.89 63.15,107.27 61.50,108.49 C59.85,109.71 57.38,111.05 56.00,111.47 C54.62,111.89 58.54,108.80 64.70,104.61 C70.86,100.43 76.15,97.00 76.46,97.00 C76.77,97.00 80.73,94.60 85.26,91.67 C89.79,88.74 96.03,84.84 99.13,83.00 C104.66,79.73 104.76,79.60 104.25,75.85 C103.68,71.58 105.15,69.00 108.16,69.00 C111.79,69.00 108.34,65.34 103.09,63.63 C94.34,60.76 95.72,59.85 80.91,78.25 C77.58,82.38 76.19,82.68 70.19,80.57 C66.35,79.21 65.88,79.27 61.07,81.75 C55.49,84.62 54.66,86.85 58.25,89.27 C59.49,90.10 60.28,91.00 60.00,91.27 C59.72,91.53 55.03,88.42 49.56,84.35 C44.09,80.29 39.18,77.11 38.63,77.29 C38.09,77.47 37.17,78.37 36.59,79.29 C35.75,80.61 37.19,84.30 43.46,96.92 C48.23,106.51 52.20,113.28 53.44,113.91 C56.83,115.62 70.21,118.81 74.50,118.93 C76.98,118.99 84.91,116.85 95.34,113.31 Z" fill="rgb(53,112,216)"/>
<path d="M 0.00 77.50 L 0.00 0.00 L 77.50 0.00 L 155.00 0.00 L 155.00 77.50 L 155.00 155.00 L 77.50 155.00 L 0.00 155.00 L 0.00 77.50 ZM 95.34 113.31 L 112.18 107.58 L 114.44 103.04 C116.58,98.76 116.64,98.02 115.60,90.08 C114.86,84.53 114.01,81.50 113.08,81.19 C112.25,80.92 107.50,85.07 101.35,91.44 C89.33,103.91 86.57,105.29 79.98,102.10 L 75.89 100.13 L 70.19 103.20 C67.06,104.89 63.15,107.27 61.50,108.49 C59.85,109.71 57.38,111.05 56.00,111.47 C54.62,111.89 58.54,108.80 64.70,104.61 C70.86,100.43 76.15,97.00 76.46,97.00 C76.77,97.00 80.73,94.60 85.26,91.67 C89.79,88.74 96.03,84.84 99.13,83.00 C104.66,79.73 104.76,79.60 104.25,75.85 C103.68,71.58 105.15,69.00 108.16,69.00 C111.79,69.00 108.34,65.34 103.09,63.63 C94.34,60.76 95.72,59.85 80.91,78.25 C79.25,80.31 77.09,82.00 76.12,82.00 C75.15,82.00 71.04,80.88 67.00,79.50 C57.94,76.42 53.69,76.31 50.91,79.09 L 48.82 81.18 L 51.16 83.73 C53.19,85.94 53.24,86.13 51.50,85.22 C50.40,84.64 45.68,81.41 41.02,78.03 C36.35,74.65 32.40,72.30 32.23,72.80 C31.74,74.29 51.06,112.40 52.86,113.50 C55.54,115.13 70.18,118.80 74.50,118.92 C76.99,118.99 84.87,116.87 95.34,113.31 Z" fill="rgb(41,26,212)"/>
<path d="M 0.00 77.50 L 0.00 0.00 L 77.50 0.00 L 155.00 0.00 L 155.00 77.50 L 155.00 155.00 L 77.50 155.00 L 0.00 155.00 L 0.00 77.50 ZM 95.34 113.31 L 112.18 107.58 L 114.44 103.04 C116.58,98.76 116.64,98.02 115.60,90.08 C114.94,85.07 113.98,81.49 113.23,81.24 C112.54,81.01 108.60,84.09 104.49,88.07 C97.47,94.88 96.85,95.25 94.46,94.16 C90.74,92.47 87.45,92.73 82.86,95.07 C80.63,96.21 78.64,96.98 78.45,96.78 C78.05,96.38 90.39,88.16 99.16,82.98 C103.86,80.21 104.80,79.20 104.66,77.07 C104.52,74.75 104.90,74.47 108.50,74.22 C115.35,73.73 115.56,73.31 111.10,68.98 C107.05,65.05 100.65,62.04 96.29,62.01 C94.17,62.00 93.00,63.23 80.91,78.25 C79.25,80.31 77.09,82.00 76.12,82.00 C75.15,82.00 71.04,80.88 67.00,79.50 C57.94,76.42 53.69,76.31 50.91,79.09 L 48.82 81.18 L 51.16 83.73 C53.19,85.94 53.24,86.13 51.50,85.22 C50.40,84.64 45.68,81.41 41.02,78.03 C36.35,74.65 32.40,72.30 32.23,72.80 C31.74,74.29 51.06,112.40 52.86,113.50 C55.54,115.13 70.18,118.80 74.50,118.92 C76.99,118.99 84.87,116.87 95.34,113.31 ZM 57.16 109.71 C69.32,101.32 76.19,96.89 75.63,97.79 C75.28,98.36 75.47,98.99 76.06,99.19 C76.65,99.38 74.29,101.05 70.82,102.90 C67.34,104.74 63.15,107.25 61.50,108.48 C59.85,109.71 57.38,111.05 56.00,111.47 C54.05,112.07 54.30,111.68 57.16,109.71 Z" fill="rgb(37,15,173)"/>
<path d="M 0.00 77.50 L 0.00 0.00 L 77.50 0.00 L 155.00 0.00 L 155.00 77.50 L 155.00 155.00 L 77.50 155.00 L 0.00 155.00 L 0.00 77.50 ZM 95.44 113.27 L 112.38 107.52 L 119.53 92.51 C127.99,74.74 128.19,74.24 126.96,73.47 C126.43,73.15 126.00,71.97 126.00,70.86 C126.00,69.03 125.59,69.16 121.77,72.17 C119.44,74.00 112.91,79.95 107.25,85.40 C97.54,94.73 96.81,95.23 94.43,94.15 C90.74,92.47 87.44,92.73 82.86,95.07 C80.63,96.21 78.65,96.98 78.46,96.79 C78.07,96.40 87.46,90.05 97.00,84.26 C100.57,82.09 106.11,78.64 109.30,76.59 L 115.11 72.87 L 111.04 68.93 C107.05,65.05 100.63,62.04 96.29,62.01 C94.17,62.00 93.00,63.23 80.91,78.25 C79.25,80.31 77.09,82.00 76.12,82.00 C75.15,82.00 71.04,80.88 67.00,79.50 C57.94,76.42 53.69,76.31 50.91,79.09 L 48.82 81.18 L 51.16 83.73 C53.19,85.94 53.24,86.13 51.50,85.22 C50.40,84.64 45.68,81.41 41.02,78.03 C36.35,74.65 32.40,72.30 32.23,72.80 C31.74,74.29 51.06,112.40 52.86,113.50 C55.54,115.13 70.18,118.80 74.50,118.92 C76.99,118.99 84.90,116.86 95.44,113.27 Z" fill="rgb(85,147,226)"/>
<path d="M 0.00 77.50 L 0.00 0.00 L 77.50 0.00 L 155.00 0.00 L 155.00 77.50 L 155.00 155.00 L 77.50 155.00 L 0.00 155.00 L 0.00 77.50 ZM 95.44 113.27 L 112.38 107.52 L 119.53 92.51 C127.99,74.74 128.19,74.24 126.96,73.47 C126.43,73.15 126.00,71.97 126.00,70.86 C126.00,69.03 125.59,69.16 121.77,72.17 C119.44,74.00 112.91,79.95 107.25,85.40 C97.54,94.73 96.81,95.23 94.43,94.15 C90.74,92.47 87.44,92.73 82.86,95.07 C80.63,96.21 78.65,96.98 78.46,96.79 C78.07,96.40 87.46,90.05 97.00,84.26 C100.57,82.09 106.11,78.64 109.30,76.59 L 115.11 72.87 L 111.04 68.93 C107.05,65.05 100.63,62.04 96.29,62.01 C94.17,62.00 93.00,63.23 80.91,78.25 C79.25,80.31 77.10,82.00 76.13,82.00 C75.17,82.00 70.35,80.63 65.44,78.96 C51.72,74.29 42.81,72.15 39.36,72.70 C37.64,72.97 35.24,72.66 34.03,72.02 C32.82,71.37 31.63,71.04 31.38,71.29 C30.59,72.07 51.14,112.45 52.86,113.50 C55.54,115.13 70.18,118.80 74.50,118.92 C76.99,118.99 84.90,116.86 95.44,113.27 Z" fill="rgb(89,77,185)"/>
<path d="M 0.00 77.50 L 0.00 0.00 L 77.50 0.00 L 155.00 0.00 L 155.00 77.50 L 155.00 155.00 L 77.50 155.00 L 0.00 155.00 L 0.00 77.50 ZM 95.44 113.27 L 112.38 107.52 L 119.77 92.01 C123.83,83.48 128.24,74.30 129.55,71.61 C134.68,61.12 130.25,63.58 110.88,81.97 C97.68,94.50 96.73,95.20 94.39,94.13 C90.74,92.47 87.43,92.74 82.86,95.07 C80.63,96.21 78.65,96.98 78.46,96.79 C78.07,96.40 87.46,90.05 97.00,84.26 C100.57,82.09 106.11,78.64 109.30,76.59 L 115.11 72.87 L 111.04 68.93 C107.05,65.05 100.63,62.04 96.29,62.01 C94.17,62.00 93.00,63.23 80.91,78.25 C79.25,80.31 77.10,82.00 76.13,82.00 C75.17,82.00 70.35,80.63 65.44,78.96 C51.72,74.29 42.81,72.15 39.36,72.70 C37.64,72.97 35.24,72.66 34.03,72.02 C32.82,71.37 31.63,71.04 31.38,71.29 C30.59,72.07 51.14,112.45 52.86,113.50 C55.54,115.13 70.18,118.80 74.50,118.92 C76.99,118.99 84.90,116.86 95.44,113.27 ZM 125.43 64.89 C124.89,64.01 122.00,63.61 122.00,64.42 C122.00,64.65 122.28,65.56 122.62,66.44 C123.09,67.68 123.55,67.79 124.61,66.91 C125.36,66.29 125.73,65.37 125.43,64.89 Z" fill="rgb(70,65,216)"/>
<path d="M 0.00 77.50 L 0.00 0.00 L 77.50 0.00 L 155.00 0.00 L 155.00 77.50 L 155.00 155.00 L 77.50 155.00 L 0.00 155.00 L 0.00 77.50 ZM 95.44 113.27 L 112.38 107.52 L 119.77 92.01 C123.83,83.48 128.24,74.30 129.55,71.61 C133.75,63.02 130.70,63.45 120.50,72.89 C117.20,75.94 113.08,79.74 111.34,81.33 C108.86,83.60 107.08,84.27 103.00,84.50 C96.46,84.86 96.65,84.67 112.73,74.50 C119.69,70.10 125.30,66.05 125.20,65.50 C124.90,63.91 120.41,63.23 106.70,62.70 L 93.90 62.21 L 88.91 68.35 C86.17,71.73 82.57,76.19 80.91,78.25 C79.25,80.31 77.10,82.00 76.13,82.00 C75.17,82.00 70.35,80.63 65.44,78.96 C51.72,74.29 42.81,72.15 39.36,72.70 C37.64,72.97 35.24,72.66 34.03,72.02 C32.82,71.37 31.63,71.04 31.38,71.29 C30.59,72.07 51.14,112.45 52.86,113.50 C55.54,115.13 70.18,118.80 74.50,118.92 C76.99,118.99 84.90,116.86 95.44,113.27 Z" fill="rgb(117,107,220)"/>
<path d="M 0.00 77.50 L 0.00 0.00 L 77.50 0.00 L 155.00 0.00 L 155.00 77.50 L 155.00 155.00 L 77.50 155.00 L 0.00 155.00 L 0.00 77.50 ZM 95.44 113.27 L 112.38 107.52 L 119.76 92.01 C123.82,83.48 128.46,73.87 130.07,70.66 C131.68,67.45 133.00,64.19 133.00,63.41 C133.00,62.24 129.64,62.00 113.54,62.00 L 94.07 62.00 L 89.00 68.25 C86.21,71.69 82.57,76.19 80.91,78.25 C79.25,80.31 77.10,82.00 76.13,82.00 C75.17,82.00 70.35,80.63 65.44,78.96 C51.72,74.29 42.81,72.15 39.36,72.70 C37.64,72.97 35.24,72.66 34.03,72.02 C32.82,71.37 31.63,71.04 31.38,71.29 C30.59,72.07 51.14,112.45 52.86,113.50 C55.54,115.13 70.18,118.80 74.50,118.92 C76.99,118.99 84.90,116.86 95.44,113.27 Z" fill="rgb(143,163,221)"/>
<path d="M 0.00 77.50 L 0.00 0.00 L 77.50 0.00 L 155.00 0.00 L 155.00 77.50 L 155.00 155.00 L 77.50 155.00 L 0.00 155.00 L 0.00 77.50 ZM 95.44 113.27 L 112.38 107.52 L 119.76 92.01 C123.82,83.48 128.46,73.87 130.07,70.66 C131.68,67.45 133.00,64.19 133.00,63.41 C133.00,62.24 129.64,62.00 113.54,62.00 L 94.07 62.00 L 89.00 68.25 C86.21,71.69 82.57,76.19 80.91,78.25 C79.25,80.31 77.10,82.00 76.13,82.00 C75.17,82.00 70.35,80.63 65.44,78.96 C50.94,74.03 31.08,68.59 30.32,69.35 C29.57,70.10 51.22,112.50 52.86,113.50 C55.53,115.13 70.18,118.80 74.50,118.92 C76.99,118.99 84.90,116.86 95.44,113.27 Z" fill="rgb(254,254,254)"/>
</g>
</svg>